<svg width="738.21997" height="557.74675" xmlns="http://www.w3.org/2000/svg" data-name="Layer 1">
 <g>
  <title>Layer 1</title>
  <path fill="#e8552b" d="m304.28414,386.44032c0,19.24928 -14.948,34.85393 -33.38792,34.85393s-33.38792,-15.60461 -33.38792,-34.85393c0,-0.43634 0.00676,-0.86964 0.0246,-1.3023c0.33849,-19.24559 15.56341,-34.5554 33.99969,-34.196s33.10172,16.2527 32.75707,35.49829l-0.00552,0.00001z" data-name="Path 2429" id="a9afa624-d143-4da3-9790-afb66062e65a"/>
  <path fill="#fff" d="m259.13876,401.91942l-9.61633,-12.8222l2.27715,-1.7091l7.83463,10.44595l30.84427,-25.23327l1.80325,2.20391l-33.14297,27.11471z" data-name="Path 2431" id="e3bc7ff1-d70c-4de9-8a31-9e1cd8f5d93e"/>
  <g data-name="Group 24" id="a0df80b4-37f6-4e81-b192-ad058c9b46d3">
   <path fill="#a0616a" d="m486.05799,192.95677a14.21117,14.21117 0 0 1 1.987,1.108l63.154,-26.954l2.253,-16.636l25.235,-0.155l-1.491,38.158l-83.357,22.047a14.94008,14.94008 0 0 1 -0.631,1.7a14.411,14.411 0 1 1 -7.151,-19.265l0.001,-0.003z" data-name="Path 552" id="ab0ed44f-d533-4992-a1b3-ca9ac72248ac"/>
   <path fill="#a0616a" d="m587.86399,538.71773l-17.263,0l-8.212,-66.584l25.477,0l-0.002,66.584z" data-name="Path 553" id="e96706e1-851e-4da2-ad9b-ad313a8c64fc"/>
   <path fill="#2f2e41" d="m558.27099,533.78574l33.292,0l0,20.955l-54.254,0a20.962,20.962 0 0 1 20.962,-20.962l0,0l0,0.007z" data-name="Path 554" id="b540b71d-0f03-4ed3-b276-b3415efc1443"/>
   <path fill="#a0616a" d="m654.99999,533.83977l-17.178,1.69l-14.7,-65.458l25.355,-2.491l6.523,66.259z" data-name="Path 555" id="b87c34d6-a0a3-40d8-a436-08cd71fc342e"/>
   <path fill="#2f2e41" d="m625.05599,531.83576l33.126,-3.263l2.054,20.857l-53.981,5.317a20.958,20.958 0 0 1 18.8,-22.911l0.001,0z" data-name="Path 556" id="bb56473f-8578-4371-8d17-16b3f8ffc95c"/>
   <circle fill="#a0616a" r="34.583" cy="45.26774" cx="592.669" data-name="Ellipse 84" id="b06ede21-2df7-4399-95f3-667c473f6547"/>
   <path fill="#2f2e41" d="m566.74299,525.25173a6.3,6.3 0 0 1 -6.217,-5.21c-8.929,-49.59 -38.141,-211.772 -38.84,-216.268a1.99063,1.99063 0 0 1 -0.023,-0.312l0,-12.09398a2.1,2.1 0 0 1 0.393,-1.228l3.858,-5.4a2.082,2.082 0 0 1 1.611,-0.88c22,-1.031 94.036,-4.054 97.516,0.294l0,0c3.495,4.365 2.253,17.611 1.971,20.22l0.014,0.272l32.366,206.98211a6.353,6.353 0 0 1 -5.233,7.23l-20.214,3.33a6.366,6.366 0 0 1 -7.076,-4.355c-6.252,-19.978 -27.216,-87.184 -34.482,-113.19a0.7,0.7 0 0 0 -1.381,0.2c0.363,24.79 1.24,88.036 1.549,109.881l0.032,2.353a6.362,6.362 0 0 1 -5.763,6.387l-19.492,1.766a5.8754,5.8754 0 0 1 -0.589,0.02187z" data-name="Path 557" id="e3edd339-fa60-4375-a5a7-b8711a5f77a0"/>
   <path fill="#DDDDDD" d="m570.72099,93.44975c-6.035,3.588 -9.647,10.18 -11.719,16.9a160.07254,160.07254 0 0 0 -6.877,38.241l-2.191,38.86l-27.113,103.028c23.5,19.883 37.053,15.363 68.686,-0.9s35.246,5.422 35.246,5.422l6.325,-87.663l9.037,-95.793a42.48654,42.48654 0 0 0 -6.846,-6.581a69.923,69.923 0 0 0 -59.761,-12.673l-4.787,1.159z" data-name="Path 99" id="fafafea0-d187-42ce-9adc-60692d5c21c2"/>
   <path fill="#a0616a" d="m561.91499,213.76375a14.82766,14.82766 0 0 1 2.112,0.986l62.447,-31.259l1.036,-16.933l25.759,-1.776l1.38,38.6l-83.45,27.6a14.784,14.784 0 1 1 -9.283,-17.223l-0.001,0.005z" data-name="Path 558" id="bcb42d09-5dc7-4cce-9178-bbabc9608de0"/>
   <path fill="#DDDDDD" d="m641.66499,111.97575c15.363,5.422 18.071,64.171 18.071,64.171c-18.075,-9.941 -39.765,6.326 -39.765,6.326s-4.518,-15.365 -9.941,-35.246a34.54,34.54 0 0 1 7.229,-32.535s9.041,-8.14098 24.406,-2.716z" data-name="Path 101" id="a6b68414-708f-47b2-ba8b-69f9e74523ce"/>
   <path fill="#2f2e41" d="m623.67199,54.41075c-4.309,-3.447 -10.187,2.816 -10.187,2.816l-3.447,-31.016s-21.543,2.581 -35.334,-0.862s-15.943,12.5 -15.943,12.5a110.65357,110.65357 0 0 1 -0.431,-19.391c0.862,-7.756 12.064,-15.512 31.885,-20.683s30.162,17.236 30.162,17.236c13.796,6.88902 7.609,42.85102 3.295,39.4z" data-name="Path 102" id="bcacc9ce-a4f2-4033-9198-64d9603f2d9b"/>
  </g>
  <path id="svg_1" fill="#ccc" d="m161.12956,45.55175a3.10716,3.10716 0 0 0 0,6.21431l226.85872,0a3.10716,3.10716 0 0 0 0,-6.21431l-226.85872,0z"/>
  <path id="svg_2" fill="#ccc" d="m161.12956,64.19465a3.10717,3.10717 0 0 0 -0.01311,6.21432l143.42243,0a3.10716,3.10716 0 1 0 0,-6.21432l-143.40932,0z"/>
  <path fill="#e8552b" d="m385.14487,21.79928c0,7.53426 -5.8507,13.642 -13.06819,13.642s-13.0682,-6.10772 -13.0682,-13.642c0,-0.17079 0.00265,-0.34038 0.00963,-0.50973c0.13249,-7.53282 6.09159,-13.52515 13.30764,-13.38447s12.95618,6.36138 12.82128,13.8942l-0.00216,0z" data-name="Path 2429" id="baa6ea24-e79a-410b-95a0-90b7a92ae1c1"/>
  <path fill="#fff" d="m367.47475,27.85787l-3.76388,-5.01867l0.89129,-0.669l3.06651,4.0886l12.0726,-9.87642l0.7058,0.86262l-12.97232,10.61287z" data-name="Path 2431" id="a0820f47-ad40-463a-872c-13bb80005143"/>
  <path id="svg_3" fill="#ccc" d="m161.12956,159.55175a3.10716,3.10716 0 0 0 0,6.21431l226.85872,0a3.10716,3.10716 0 0 0 0,-6.21431l-226.85872,0z"/>
  <path id="svg_4" fill="#ccc" d="m161.12956,178.19465a3.10717,3.10717 0 0 0 -0.01311,6.21432l143.42243,0a3.10716,3.10716 0 1 0 0,-6.21432l-143.40932,0z"/>
  <path fill="#e8552b" d="m384.14487,135.79928c0,7.53426 -5.8507,13.642 -13.06819,13.642s-13.0682,-6.10772 -13.0682,-13.642c0,-0.17079 0.00265,-0.34038 0.00963,-0.50973c0.13249,-7.53282 6.09159,-13.52515 13.30764,-13.38447s12.95618,6.36138 12.82128,13.8942l-0.00216,0z" data-name="Path 2429" id="b63fc892-67cf-40d0-9003-f173040a559c"/>
  <path fill="#fff" d="m366.47475,141.85787l-3.76388,-5.01867l0.89129,-0.66895l3.06651,4.0886l12.0726,-9.87642l0.7058,0.86262l-12.97232,10.61282z" data-name="Path 2431" id="b8e61bbe-38fc-40ac-ac8c-5bb63bac7af2"/>
  <path id="svg_5" fill="#ccc" d="m161.12956,273.55175a3.10716,3.10716 0 0 0 0,6.21431l226.85872,0a3.10716,3.10716 0 0 0 0,-6.21431l-226.85872,0z"/>
  <path id="svg_6" fill="#ccc" d="m161.12956,292.19465a3.10717,3.10717 0 0 0 -0.01311,6.21432l143.42243,0a3.10716,3.10716 0 1 0 0,-6.21432l-143.40932,0z"/>
  <path fill="#e8552b" d="m384.14487,249.79928c0,7.53426 -5.8507,13.642 -13.06819,13.642s-13.0682,-6.10772 -13.0682,-13.642c0,-0.17079 0.00265,-0.34038 0.00963,-0.50973c0.13249,-7.53282 6.09159,-13.52515 13.30764,-13.38447s12.95618,6.36138 12.82128,13.8942l-0.00216,0z" data-name="Path 2429" id="f67391c6-f0f4-4d09-a78c-675b0edf0c3b"/>
  <path fill="#fff" d="m366.47475,255.85787l-3.76388,-5.01867l0.89129,-0.66895l3.06651,4.0886l12.0726,-9.87642l0.7058,0.86262l-12.97232,10.61282z" data-name="Path 2431" id="e94ecbaf-2ca7-4fd5-871d-ab097a8f2c0d"/>
 </g>

</svg>